<?xml version="1.0" encoding="UTF-8" standalone="no"?>
<!DOCTYPE svg PUBLIC "-//W3C//DTD SVG 1.1//EN" "http://www.w3.org/Graphics/SVG/1.1/DTD/svg11.dtd">
<svg width="100%" height="100%" viewBox="0 0 100 100" version="1.1" xmlns="http://www.w3.org/2000/svg" xmlns:xlink="http://www.w3.org/1999/xlink" xml:space="preserve" xmlns:serif="http://www.serif.com/" style="fill-rule:evenodd;clip-rule:evenodd;stroke-linejoin:round;stroke-miterlimit:2;">
    <g transform="matrix(1,0,0,1,-630,-210)">
        <g>
            <circle cx="680" cy="260" r="50" style="fill:rgb(186,177,171);"/>
            <path d="M720.695,258.621C720.695,264.139 718.687,267.902 714.675,269.908C713.503,270.494 709.825,271.287 703.638,272.291C699.626,272.961 697.62,274.508 697.62,276.93L697.62,287.088C697.62,287.51 697.745,288.803 697.995,290.977L698.372,294.991C698.372,296.246 698.079,298.297 697.493,301.137C695.905,301.471 694.065,301.846 691.975,302.269C691.305,299.758 690.971,298.045 690.971,297.123C690.971,296.707 691.076,296.078 691.284,295.241C691.491,294.407 691.6,293.78 691.6,293.358C691.6,292.778 691.08,291.145 690.041,288.471L688.096,288.471C687.838,288.889 687.752,289.432 687.836,290.1C688.17,291.522 688.295,292.733 688.213,293.737C686.791,294.741 684.826,296.078 682.318,297.75C681.732,297.584 681.525,297.5 681.689,297.5L681.689,288.596C681.525,288.18 681.105,288.015 680.435,288.094L678.931,288.094L677.427,299.881C676.253,299.965 674.835,299.965 673.163,299.881C672.575,297.123 671.532,293.028 670.028,287.592L669.024,287.592C668.102,290.521 667.602,292.111 667.518,292.361C667.518,292.695 667.622,293.342 667.832,294.303C668.039,295.265 668.145,295.912 668.145,296.246C668.145,296.496 668.061,297.123 667.895,298.127L667.518,301.137C667.35,301.303 667.141,301.387 666.891,301.387C664.383,301.387 662.709,300.76 661.875,299.508C661.039,298.252 660.703,296.496 660.871,294.237L661.875,279.19C661.875,278.938 661.957,278.604 662.125,278.186C662.289,277.768 662.375,277.475 662.375,277.309C662.375,276.639 661.664,275.301 660.244,273.295C659.996,273.213 658.695,272.918 656.357,272.416C654.933,272.082 652.132,271.498 647.955,270.66C642.184,269.576 639.301,264.935 639.301,256.74C639.301,244.533 644.319,234.375 654.352,226.265C654.766,228.523 655.479,231.531 656.481,235.294C657.235,235.464 658.866,235.839 661.372,236.423C661.876,236.591 664.425,237.511 669.024,239.183C666.68,237.761 663.631,235.464 659.868,232.285C658.446,230.613 657.735,227.814 657.735,223.885C657.735,222.965 659.325,221.877 662.503,220.621C665.343,219.451 667.478,218.785 668.899,218.615C673.413,218.033 676.883,217.736 679.309,217.736C689.758,217.736 698.2,220.414 704.637,225.765C702.549,228.191 698.953,230.779 693.854,233.538C695.862,233.622 698.788,232.831 702.633,231.155C706.477,229.485 708.108,228.647 707.524,228.647C708.192,228.647 709.532,229.987 711.538,232.661C713.042,234.667 714.253,236.468 715.175,238.052C717.849,242.82 719.646,247.96 720.568,253.478C720.568,255.404 720.609,256.783 720.693,257.617L720.693,258.621L720.695,258.621ZM672.664,260.879C672.664,257.285 671.096,253.877 667.961,250.656C664.824,247.437 661.459,245.83 657.865,245.83C654.687,245.83 651.888,247.178 649.463,249.869C647.037,252.562 645.826,255.551 645.826,258.832C645.826,261.691 647.205,263.545 649.965,264.385C651.721,264.891 654.184,265.186 657.363,265.268L664.261,265.268C669.859,265.352 672.664,263.889 672.664,260.879ZM686.332,276.432L686.332,272.543C685.748,271.457 685.162,270.328 684.578,269.156C684.076,267.482 683.156,265.142 681.818,262.131L680.437,276.805C680.437,277.977 680.187,278.561 679.685,278.561C679.351,278.561 679.101,278.479 678.933,278.313C678.347,269.45 678.054,265.604 678.054,266.772L678.054,262.385C677.886,262.131 677.679,262.006 677.429,262.006C674.585,264.936 673.165,269.658 673.165,276.178C673.165,279.774 673.495,281.989 674.167,282.826C674.837,282.66 675.589,282.367 676.425,281.949C676.759,281.781 677.72,281.697 679.312,281.697C680.896,281.697 682.822,282.199 685.078,283.201C685.914,283.201 686.332,280.945 686.332,276.432ZM714.676,258.957C714.676,255.59 713.422,252.582 710.914,249.932C708.404,247.284 705.519,245.957 702.262,245.957C698.75,245.957 695.467,247.564 692.416,250.783C689.363,254.002 687.838,257.367 687.838,260.879C687.838,263.807 689.258,265.268 692.102,265.268L706.524,265.268C711.957,265.186 714.676,263.082 714.676,258.957Z" style="fill:rgb(13,15,15);fill-rule:nonzero;"/>
        </g>
    </g>
</svg>
