<?xml version="1.0" encoding="UTF-8" standalone="no"?>
<!DOCTYPE svg PUBLIC "-//W3C//DTD SVG 1.1//EN" "http://www.w3.org/Graphics/SVG/1.1/DTD/svg11.dtd">
<svg width="100%" height="100%" viewBox="0 0 100 100" version="1.1" xmlns="http://www.w3.org/2000/svg" xmlns:xlink="http://www.w3.org/1999/xlink" xml:space="preserve" xmlns:serif="http://www.serif.com/" style="fill-rule:evenodd;clip-rule:evenodd;stroke-linejoin:round;stroke-miterlimit:2;">
    <g transform="matrix(1,0,0,1,-525,-210.002)">
        <g>
            <circle cx="575" cy="260.002" r="50" style="fill:rgb(193,215,233);"/>
            <path d="M592.488,293.721C587.701,298.592 581.804,301.028 574.8,301.028C566.939,301.028 560.702,298.338 556.089,292.955C551.73,287.828 549.552,281.293 549.552,273.349C549.552,264.806 553.269,255.063 560.702,244.125C566.766,235.156 573.901,227.295 582.104,220.545C580.907,226.014 580.311,229.9 580.311,232.207C580.311,237.506 581.975,242.674 585.307,247.715C589.409,253.695 592.526,258.141 594.664,261.043C597.996,266.086 599.662,270.998 599.662,275.78C599.664,282.873 597.271,288.854 592.488,293.721ZM592.359,266.359C591.078,263.498 589.582,261.597 587.873,260.656C588.129,261.17 588.258,261.896 588.258,262.836C588.258,264.631 587.746,267.193 586.719,270.525L585.055,275.652C585.055,278.642 586.547,280.138 589.539,280.138C592.699,280.138 594.281,278.043 594.281,273.857C594.281,271.723 593.641,269.225 592.359,266.359Z" style="fill:rgb(13,15,15);fill-rule:nonzero;"/>
        </g>
    </g>
</svg>
