<?xml version="1.0" encoding="UTF-8" standalone="no"?>
<!DOCTYPE svg PUBLIC "-//W3C//DTD SVG 1.1//EN" "http://www.w3.org/Graphics/SVG/1.1/DTD/svg11.dtd">
<svg width="100%" height="100%" viewBox="0 0 100 100" version="1.1" xmlns="http://www.w3.org/2000/svg" xmlns:xlink="http://www.w3.org/1999/xlink" xml:space="preserve" xmlns:serif="http://www.serif.com/" style="fill-rule:evenodd;clip-rule:evenodd;stroke-linejoin:round;stroke-miterlimit:2;">
    <g transform="matrix(1,0,0,1,-840,-210.002)">
        <g>
            <path d="M940,260C940,287.615 917.615,310.002 889.998,310.002C862.385,310.002 840,287.615 840,260C840,232.387 862.385,210.002 889.998,210.002C917.615,210.002 940,232.387 940,260Z" style="fill:rgb(163,192,149);fill-rule:nonzero;"/>
            <path d="M933.762,266.227C933.762,267.895 933.117,269.391 931.826,270.725C930.537,272.057 929.056,272.723 927.39,272.723C924.728,272.723 922.767,271.473 921.521,268.975L915.65,268.725C914.398,268.725 911.941,269.268 908.279,270.35C904.365,271.432 902.115,272.307 901.533,272.973C900.617,273.971 899.869,276.305 899.285,279.969C898.783,282.967 898.537,285.174 898.537,286.59C898.537,288.836 898.889,290.483 899.598,291.524C900.307,292.565 901.764,293.44 903.969,294.147C906.174,294.854 907.53,295.251 908.03,295.334C908.362,295.334 908.903,295.293 909.655,295.209L911.153,295.209C912.233,295.209 913.358,295.379 914.526,295.709C916.192,296.209 916.901,296.875 916.651,297.709C915.483,297.543 913.444,297.793 910.53,298.459L914.026,300.207C914.026,301.207 912.61,301.705 909.78,301.705C909.028,301.705 908.009,301.539 906.717,301.207C905.426,300.871 904.572,300.707 904.158,300.707L902.533,300.707C902.451,301.539 902.199,302.787 901.783,304.453C900.365,304.369 898.703,303.535 896.787,301.955C894.869,300.375 893.664,299.582 893.166,299.582C892.664,299.582 891.955,300.375 891.041,301.955C890.123,303.535 889.666,304.619 889.666,305.203C888.584,304.619 887.67,303.535 886.916,301.955C886.584,300.871 886.209,299.789 885.795,298.707C884.963,298.791 883.42,300.541 881.174,303.955L880.547,303.955C880.381,303.703 879.752,301.955 878.674,298.707C876.092,297.875 873.678,297.459 871.428,297.459C870.346,297.459 868.68,297.709 866.432,298.207L862.936,297.959C863.434,297.459 864.891,296.502 867.307,295.086C870.137,293.42 872.303,292.586 873.803,292.586C874.049,292.586 874.381,292.629 874.803,292.711C875.217,292.797 875.553,292.836 875.803,292.836C876.381,292.836 877.321,292.524 878.612,291.898C879.903,291.275 880.651,290.712 880.858,290.214C881.069,289.71 881.174,288.421 881.174,286.339C881.174,281.593 879.924,278.054 877.424,275.722C875.256,273.64 871.678,272.142 866.68,271.224C865.348,275.97 861.6,278.347 855.44,278.347C853.44,278.347 851.442,277.14 849.444,274.724C847.448,272.308 846.448,270.101 846.448,268.103C846.448,265.021 847.735,262.482 850.317,260.48C848.237,258.318 847.196,256.111 847.196,253.863C847.196,251.779 847.839,249.949 849.132,248.363C850.423,246.785 852.109,245.867 854.191,245.615C854.025,242.953 854.898,241.119 856.814,240.119C855.898,239.205 855.441,237.582 855.441,235.25C855.441,232.502 856.357,230.211 858.189,228.379C860.019,226.547 862.31,225.629 865.058,225.629C868.058,225.629 870.515,226.674 872.429,228.754C874.845,220.51 880.05,216.387 888.042,216.387C892.206,216.387 895.87,218.053 899.036,221.385C900.202,222.633 900.784,223.301 900.784,223.381C899.784,223.381 900.286,223.193 902.284,222.82C904.28,222.445 905.737,222.257 906.657,222.257C909.903,222.257 912.776,223.464 915.276,225.88C917.44,228.046 918.94,230.792 919.774,234.124C920.354,234.208 921.272,234.456 922.522,234.872C924.352,235.792 925.27,237.37 925.27,239.62C925.27,240.038 924.934,240.829 924.27,241.993C929.598,244.991 932.264,249.155 932.264,254.485C932.264,255.983 931.682,258.069 930.516,260.732C932.682,261.979 933.762,263.813 933.762,266.227ZM882.295,271.723L882.295,270.1C882.295,268.186 881.359,266.436 879.486,264.854C877.611,263.272 875.716,262.481 873.802,262.481C871.468,262.481 869.306,263.022 867.306,264.102C871.719,263.854 876.717,266.395 882.295,271.723ZM880.049,256.234C878.799,254.816 877.717,253.359 876.799,251.861C873.301,252.777 871.553,253.818 871.553,254.982C872.553,254.902 874.01,255.087 875.924,255.546C877.838,256.005 879.215,256.234 880.049,256.234ZM887.67,252.361L887.67,246.865C885.67,246.533 884.459,246.365 884.047,246.365L884.047,248.238L887.67,252.361ZM903.908,248.863C902.908,248.447 901.033,247.613 898.287,246.365L898.287,257.107C902.199,254.857 904.072,252.109 903.908,248.863ZM910.775,263.604L908.029,260.231C906.365,261.398 904.677,262.585 902.968,263.792C901.259,264.999 899.782,266.355 898.536,267.852C902.283,265.85 906.365,264.438 910.775,263.604Z" style="fill:rgb(13,15,15);fill-rule:nonzero;"/>
        </g>
    </g>
</svg>
