<?xml version="1.0" encoding="UTF-8" standalone="no"?>
<!DOCTYPE svg PUBLIC "-//W3C//DTD SVG 1.1//EN" "http://www.w3.org/Graphics/SVG/1.1/DTD/svg11.dtd">
<svg width="100%" height="100%" viewBox="0 0 100 100" version="1.1" xmlns="http://www.w3.org/2000/svg" xmlns:xlink="http://www.w3.org/1999/xlink" xml:space="preserve" xmlns:serif="http://www.serif.com/" style="fill-rule:evenodd;clip-rule:evenodd;stroke-linejoin:round;stroke-miterlimit:2;">
    <g transform="matrix(1,0,0,1,-420,-210.002)">
        <g>
            <g transform="matrix(1,0,0,1,-315,0)">
                <circle cx="785" cy="260.002" r="50" style="fill:rgb(228,153,119);"/>
            </g>
            <g transform="matrix(1,0,0,1,-315,0)">
                <path d="M826.965,276.619C823.229,285.531 815.805,289.986 804.69,289.986C802.653,289.986 800.444,290.24 798.069,290.748C794.505,291.512 792.723,292.576 792.723,293.934C792.723,294.358 793.018,294.844 793.614,295.397C794.206,295.95 794.718,296.223 795.141,296.223C793.018,296.223 794.461,296.287 799.467,296.414C804.475,296.541 807.615,296.605 808.889,296.605C801.506,300.931 789.157,302.924 771.846,302.586C766.158,302.502 761.28,299.998 757.207,295.076C753.215,290.407 751.223,285.188 751.223,279.418C751.223,273.31 753.28,268.11 757.399,263.823C761.512,259.541 766.628,257.396 772.737,257.396C774.094,257.396 775.897,257.693 778.147,258.287C780.395,258.881 781.903,259.178 782.665,259.178C785.804,259.178 789.71,257.885 794.378,255.295C799.044,252.707 801.253,251.412 800.999,251.412C800.149,260.324 797.179,266.308 792.085,269.36C788.437,271.483 786.612,273.561 786.612,275.596C786.612,276.869 787.376,277.889 788.903,278.653C790.091,279.248 791.405,279.545 792.848,279.545C795.055,279.545 797.219,278.189 799.342,275.474C801.461,272.756 802.397,270.297 802.143,268.088C801.889,265.543 802.059,262.485 802.653,258.924C802.821,257.904 803.436,256.654 804.497,255.17C805.558,253.684 806.513,252.772 807.362,252.432C807.362,253.194 807.087,254.469 806.534,256.25C805.981,258.031 805.708,259.35 805.708,260.197C805.708,262.064 806.216,263.506 807.235,264.523C808.76,263.931 810.118,262.021 811.309,258.794C812.325,256.335 812.918,253.958 813.09,251.667C809.524,251.497 806.108,249.886 802.842,246.829C799.574,243.772 797.942,240.464 797.942,236.901C797.942,236.307 798.024,235.713 798.198,235.118C798.706,235.882 799.469,237.071 800.487,238.682C801.93,240.803 803.034,241.864 803.8,241.864C804.816,241.864 805.325,240.803 805.325,238.682C805.325,235.967 804.602,233.506 803.161,231.299C801.548,228.668 799.468,227.352 796.923,227.352C795.734,227.352 793.952,227.989 791.579,229.262C789.2,230.533 787.036,231.172 785.087,231.172C784.491,231.172 781.858,230.406 777.192,228.879C785.422,227.524 789.54,226.293 789.54,225.188C789.54,222.303 783.895,220.35 772.61,219.333C771.505,219.249 769.469,219.079 766.499,218.823C766.837,218.399 769.257,217.932 773.757,217.423C777.575,217.001 780.249,216.786 781.775,216.786C801.972,216.786 814.787,226.591 820.218,246.194C821.152,245.421 821.62,244.128 821.62,242.323C821.62,239.999 820.94,237.073 819.583,233.546C819.071,232.171 818.265,230.105 817.163,227.353C824.12,236.22 827.602,244.623 827.602,252.552C827.602,256.73 826.623,260.525 824.672,263.933C823.402,266.236 821.022,269.177 817.545,272.759C814.065,276.339 811.688,279.111 810.414,281.072C815.082,279.801 818.139,278.824 819.582,278.144C822.805,276.704 825.732,274.538 828.365,271.652C828.365,272.758 827.898,274.414 826.965,276.619ZM771.463,226.594C771.463,228.119 770.613,229.096 768.918,229.52L765.607,230.03C764.418,230.624 762.679,232.958 760.388,237.03C760.132,235.759 759.751,233.977 759.242,231.684C758.478,231.77 757.207,232.448 755.424,233.721C754.66,234.315 753.428,235.205 751.731,236.393C752.243,233.338 753.938,230.245 756.825,227.1C759.88,223.623 762.85,221.883 765.735,221.883C769.553,221.883 771.463,223.455 771.463,226.594ZM793.613,238.303C793.613,239.746 792.828,240.957 791.258,241.932C789.688,242.909 788.139,243.397 786.612,243.397C784.575,243.397 782.749,242.251 781.139,239.959C779.184,237.158 777.192,235.334 775.155,234.482C775.579,234.06 776.089,233.847 776.684,233.847C777.448,233.847 778.739,234.441 780.565,235.628C782.389,236.817 783.555,237.411 784.067,237.411C784.491,237.411 785.19,236.817 786.167,235.628C787.142,234.44 788.224,233.847 789.413,233.847C792.213,233.848 793.613,235.334 793.613,238.303Z" style="fill:rgb(13,15,15);fill-rule:nonzero;"/>
            </g>
        </g>
    </g>
</svg>
