<?xml version="1.0" encoding="UTF-8" standalone="no"?>
<!DOCTYPE svg PUBLIC "-//W3C//DTD SVG 1.1//EN" "http://www.w3.org/Graphics/SVG/1.1/DTD/svg11.dtd">
<svg width="100%" height="100%" viewBox="0 0 100 100" version="1.1" xmlns="http://www.w3.org/2000/svg" xmlns:xlink="http://www.w3.org/1999/xlink" xml:space="preserve" xmlns:serif="http://www.serif.com/" style="fill-rule:evenodd;clip-rule:evenodd;stroke-linejoin:round;stroke-miterlimit:2;">
    <g transform="matrix(1,0,0,1,-420,-210.002)">
        <g>
            <circle cx="470" cy="260.002" r="50" style="fill:rgb(248,246,216);"/>
            <path d="M517.691,267.066C511.13,263.367 506.923,261.515 505.074,261.515C503.73,261.515 502.679,262.547 501.92,264.607C501.162,266.67 499.65,267.697 497.379,267.697C496.453,267.697 494.561,267.361 491.701,266.689C490.103,269.129 489.303,270.685 489.303,271.357C489.303,272.283 489.992,273.373 491.367,274.638C492.742,275.9 493.902,276.529 494.849,276.529C495.451,276.529 496.265,276.404 497.298,276.15C498.329,275.9 499.019,275.773 499.362,275.773C500.395,275.773 500.909,277.666 500.909,281.451C500.909,285.068 500.069,290.619 498.386,298.105C496.198,289.525 493.886,285.234 491.448,285.234C491.11,285.234 490.417,285.486 489.366,285.994C488.313,286.496 487.536,286.748 487.032,286.748C484.594,286.748 482.407,284.521 480.471,280.06C476.602,280.65 474.666,282.627 474.666,285.994C474.666,287.678 475.443,289.021 477.002,290.029C478.555,291.037 479.336,291.756 479.336,292.174C479.336,294.447 476.012,297.938 469.367,302.647C465.836,305.17 463.394,306.936 462.051,307.944C463.225,306.432 464.403,304.457 465.584,302.016C466.928,299.241 467.602,297.096 467.602,295.58C467.602,294.74 466.635,293.56 464.7,292.047C462.764,290.535 461.8,288.936 461.8,287.254C461.8,285.826 462.302,284.061 463.312,281.955C462.218,280.693 460.917,280.06 459.402,280.06C456.037,280.06 454.357,281.156 454.357,283.34C454.357,281.826 454.357,282.961 454.357,286.746C454.439,289.522 452.337,290.91 448.046,290.91C444.767,290.91 439.255,290.151 431.519,288.639C440.267,286.451 444.64,283.928 444.64,281.069C444.64,281.405 444.472,280.397 444.136,278.041C443.798,275.437 445.65,273.08 449.687,270.978C448.929,267.111 446.914,265.172 443.63,265.172C443.126,265.172 442.198,266.056 440.855,267.819C439.509,269.59 438.248,270.471 437.072,270.471C435.052,270.471 432.443,268.285 429.25,263.908C427.734,261.724 425.42,258.484 422.309,254.193C424.243,255.205 426.178,256.213 428.114,257.224C430.637,258.4 432.655,258.99 434.171,258.99C435.349,258.99 436.505,257.959 437.64,255.898C438.775,253.837 440.269,252.806 442.119,252.806C442.373,252.806 444.055,253.31 447.166,254.322C448.762,251.883 449.564,250.074 449.564,248.896C449.564,247.886 448.953,246.73 447.734,245.425C446.513,244.122 445.4,243.47 444.39,243.47C443.968,243.47 443.318,243.595 442.433,243.849C441.552,244.101 440.9,244.228 440.48,244.228C438.964,244.228 438.207,242.335 438.207,238.55C438.207,237.54 439.176,231.78 441.111,221.265C441.025,222.525 441.572,224.882 442.75,228.329C444.18,232.536 445.861,234.638 447.799,234.638C448.133,234.638 448.807,234.386 449.817,233.88C450.825,233.376 451.624,233.126 452.213,233.126C454.147,233.126 455.744,234.22 457.008,236.403L458.901,239.809C460.667,239.809 462.139,239.18 463.315,237.918C464.493,236.656 465.083,235.141 465.083,233.375C465.083,231.525 464.306,230.115 462.749,229.148C461.19,228.181 460.413,227.445 460.413,226.941C460.413,225.173 463.19,222.189 468.741,217.983C473.198,214.62 476.1,212.643 477.448,212.053C473.831,216.932 472.022,220.504 472.022,222.777C472.022,223.955 472.735,225.218 474.167,226.562C475.933,228.16 476.942,229.296 477.194,229.968C478.034,231.906 477.95,234.554 476.942,237.917C479.213,239.517 480.936,240.313 482.116,240.313C484.552,240.313 485.774,239.049 485.774,236.528C485.774,236.276 485.669,235.477 485.46,234.132C485.247,232.788 485.187,232.03 485.269,231.861C485.605,230.683 487.919,230.093 492.208,230.093C494.899,230.093 500.491,230.851 508.989,232.366C507.137,232.87 504.362,233.626 500.663,234.636C497.298,235.646 495.614,236.781 495.614,238.042C495.614,238.632 495.823,239.64 496.245,241.069C496.665,242.501 496.878,243.549 496.878,244.225C496.878,245.401 496.12,246.495 494.607,247.502L490.316,250.533C491.326,252.385 491.998,253.478 492.336,253.812C493.176,254.82 494.311,255.326 495.742,255.326C496.752,255.326 497.676,254.443 498.517,252.678C499.357,250.91 500.705,250.028 502.554,250.028C504.824,250.028 507.392,252.132 510.251,256.339C511.844,258.699 514.326,262.272 517.691,267.066ZM489.684,259.75C489.684,254.369 487.705,249.699 483.752,245.744C479.799,241.791 475.131,239.814 469.748,239.814C464.279,239.814 459.568,241.771 455.617,245.683C451.664,249.593 449.644,254.283 449.562,259.749C449.476,265.132 451.474,269.779 455.554,273.687C459.634,277.599 464.365,279.556 469.747,279.556C475.466,279.556 480.239,277.683 484.065,273.941C487.895,270.201 489.766,265.471 489.684,259.75ZM487.791,259.75C487.791,264.881 486.066,269.131 482.617,272.49C479.166,275.857 474.877,277.539 469.748,277.539C464.785,277.539 460.537,275.816 457.006,272.365C453.475,268.92 451.707,264.713 451.707,259.75C451.707,254.873 453.492,250.686 457.066,247.197C460.644,243.707 464.869,241.959 469.748,241.959C474.625,241.959 478.852,243.725 482.428,247.26C486.002,250.793 487.791,254.955 487.791,259.75Z" style="fill:rgb(13,15,15);fill-rule:nonzero;"/>
        </g>
    </g>
</svg>
